<?xml version="1.0" encoding="utf-8"?>
<!-- Generator: Adobe Illustrator 26.0.0, SVG Export Plug-In . SVG Version: 6.00 Build 0)  -->
<svg version="1.1" id="Capa_1" xmlns="http://www.w3.org/2000/svg" xmlns:xlink="http://www.w3.org/1999/xlink" x="0px" y="0px"
	 viewBox="0 0 512 512" style="enable-background:new 0 0 512 512;" xml:space="preserve">
<style type="text/css">
	.st0{fill:#FFFFFF;}
</style>
<path class="st0" d="M512,105.3v1.9c-19.8,70.2-39.9,140.6-60.1,210.9c-3.4,11.8-10.4,12.8-22.1,12.8c-86.8,0-173.6,0-260.4,0
	c-4.2,0-7.2,0.4-9.2,1.1c-12.4,4.9-12,23.2,0.1,27.7c2,0.8,6,1.1,11.8,1.1c87.1,0,174.1,0,261.2,0c4.1,0,7.1,0.4,9,1.1
	c15.8,6,10.9,28.9-6.1,29c-6.6,0-13.1-0.1-19.7-0.3c-2.3-0.1-4.3,0.1-6.2,0.5c-0.5,0.1-0.5,0.2,0,0.3c2.5,0.4,5.2,0.3,7.5,0.9
	c34,9.1,46.1,51.5,19.8,76.2c-26.5,24.9-69.4,9.3-74.9-25.9c-3.8-23.9,14.6-51.2,40.6-50.9c0.1,0,0.1,0,0.2,0c0.1,0,0.1-0.1,0.2-0.2
	c0-0.1,0-0.2-0.1-0.2c0,0,0,0,0,0c-2-0.3-4-0.4-6.1-0.5c-65.6,0-131.1,0-196.4,0c-0.7,0-0.8,0.2-0.2,0.6c1.3,0.8,3.8,0.3,5.4,0.7
	c14.5,4,24.7,12.5,30.5,25.3c6.4,14.3,5.2,31-3.8,43.9c-20,28.7-63.3,24.8-77.9-7.1c-12.4-27,6.3-61.4,37-62.6
	c0.1,0,0.2-0.1,0.2-0.2c0-0.1-0.1-0.2-0.2-0.2c-15.1-2.4-28.9,2.1-43.8-4.2c-21.3-9.1-32-33.2-24.8-55.1c3.9-11.8,11.9-20.8,24-27
	c0.4-0.2,0.6-0.6,0.5-1L94.1,61.4C94,61.2,93.8,61,93.6,61c-23.7,0-47.4,0-71.1,0C10.4,61,2.1,59.9,0,46.9v-1.7
	C1.7,33.5,9.2,31,20,31c28.4,0,56.8,0,85.2,0c11.2,0,14.5,7.7,16.8,17.9c3.1,13.8,6.2,27.6,9.2,41.5c0.1,0.4,0.3,0.5,0.7,0.5
	c119.6,0,239.3,0,359.1,0C502.3,91,510.3,92.9,512,105.3z"/>
</svg>
