<?xml version="1.0" encoding="UTF-8" standalone="no"?>
<!DOCTYPE svg PUBLIC "-//W3C//DTD SVG 1.1//EN" "http://www.w3.org/Graphics/SVG/1.1/DTD/svg11.dtd">
<svg xmlns="http://www.w3.org/2000/svg" version="1.1" viewBox="0.00 0.00 512.00 512.00">
<path fill="#f40b5f" d="
  M 126.53 0.00
  L 129.82 0.00
  Q 176.90 2.43 209.33 34.29
  Q 213.65 38.52 222.65 49.21
  Q 239.20 68.84 255.79 88.38
  A 0.31 0.30 44.5 0 0 256.26 88.38
  Q 274.13 67.27 292.00 46.09
  Q 300.58 35.92 305.48 31.33
  Q 336.70 2.08 381.07 0.00
  L 387.31 0.00
  C 465.22 3.69 510.37 76.62 512.00 148.18
  L 512.00 155.31
  C 510.44 189.98 501.34 221.18 481.34 249.33
  Q 477.52 254.70 468.85 264.95
  Q 366.05 386.47 263.15 507.90
  Q 260.34 511.21 256.94 512.00
  L 255.18 512.00
  Q 251.66 511.23 248.16 507.08
  Q 145.20 385.47 42.22 263.84
  C 15.71 232.53 1.28 197.91 0.00 156.12
  L 0.00 147.96
  C 1.70 74.60 47.72 4.16 126.53 0.00
  Z"
/>
</svg>
