<?xml version="1.0" encoding="utf-8"?>
<!-- Generator: Adobe Illustrator 26.0.0, SVG Export Plug-In . SVG Version: 6.00 Build 0)  -->
<svg version="1.1" id="Capa_1" xmlns="http://www.w3.org/2000/svg" xmlns:xlink="http://www.w3.org/1999/xlink" x="0px" y="0px"
	 viewBox="0 0 512 512" style="enable-background:new 0 0 512 512;" xml:space="preserve">
<style type="text/css">
	.st0{fill:#FFFFFF;}
</style>
<path class="st0" d="M126.5,0h3.3c31.4,1.6,57.9,13.1,79.5,34.3c2.9,2.8,7.3,7.8,13.3,14.9c11,13.1,22.1,26.1,33.1,39.2
	c0.1,0.1,0.3,0.1,0.4,0c0,0,0,0,0,0c11.9-14.1,23.8-28.2,35.7-42.3c5.7-6.8,10.2-11.7,13.5-14.8c20.8-19.5,46-29.9,75.6-31.3h6.2
	C465.2,3.7,510.4,76.6,512,148.2v7.1c-1.6,34.7-10.7,65.9-30.7,94c-2.5,3.6-6.7,8.8-12.5,15.6c-68.5,81-137.1,162-205.7,242.9
	c-1.9,2.2-3.9,3.6-6.2,4.1h-1.8c-2.3-0.5-4.7-2.2-7-4.9C179.5,426,110.9,344.9,42.2,263.8C15.7,232.5,1.3,197.9,0,156.1V148
	C1.7,74.6,47.7,4.2,126.5,0z"/>
</svg>
