<?xml version="1.0" encoding="utf-8"?>
<!-- Generator: Adobe Illustrator 26.0.0, SVG Export Plug-In . SVG Version: 6.00 Build 0)  -->
<svg version="1.1" id="Capa_1" xmlns="http://www.w3.org/2000/svg" xmlns:xlink="http://www.w3.org/1999/xlink" x="0px" y="0px"
	 viewBox="0 0 512 512" style="enable-background:new 0 0 512 512;" xml:space="preserve">
<style type="text/css">
	.st0{fill:#E51E25;}
</style>
<path class="st0" d="M255.3,0h1.7c14.5,1.1,25.1,8,31.7,20.6c1.4,2.7,2.7,5.4,3.9,8.2c17,40.7,34,81.4,51.1,122.1
	c0.1,0.3,0.4,0.5,0.7,0.5c41.5,5.7,82.9,11.4,124.4,17.1c9.6,1.3,16.1,2.7,19.5,4c21.4,8.3,30.1,34.2,17.8,53.9
	c-2,3.1-6.2,7.7-12.8,13.5c-31.9,28.5-63.7,56.9-95.5,85.2c-0.5,0.4-0.7,1.1-0.6,1.7c6.6,44.8,13.1,89.3,19.6,133.6
	c1.3,9.2,1.8,15.7,1.3,19.5c-3.6,27.1-35.1,40.5-57.6,25.2c-34.7-23.6-69.3-47.1-103.9-70.7c-0.3-0.2-0.8-0.2-1.1,0
	c-34.8,23.7-69.6,47.3-104.4,70.9c-5.6,3.8-11.9,5.9-19.1,6.4h-2.2c-18-0.9-33.5-14-35.8-31.9c-0.5-3.7-0.1-10,1.2-18.7
	c6.5-44.2,13.1-89,19.7-134.4c0.1-0.6-0.1-1.2-0.6-1.6c-33.6-29.9-67.2-60-101.1-90.2C-7.1,217-2.9,183.7,22.4,173
	c3.4-1.4,9.9-2.8,19.5-4.2c41.9-5.8,83.6-11.6,125.4-17.3c0.5-0.1,0.9-0.4,1.1-0.8c17.6-42.1,35.3-84.3,53-126.6
	C227.5,9.3,238.8,1.3,255.3,0z"/>
</svg>
