<?xml version="1.0" encoding="UTF-8" standalone="no"?>
<!DOCTYPE svg PUBLIC "-//W3C//DTD SVG 1.1//EN" "http://www.w3.org/Graphics/SVG/1.1/DTD/svg11.dtd">
<svg xmlns="http://www.w3.org/2000/svg" version="1.1" viewBox="0.00 0.00 512.00 512.00">
<path fill="#000000" d="
  M 255.31 0.00
  L 257.04 0.00
  Q 278.82 1.70 288.79 20.62
  Q 290.95 24.72 292.74 29.00
  Q 318.29 90.09 343.80 151.12
  A 0.54 0.54 0.0 0 0 344.23 151.45
  Q 406.88 160.10 469.28 168.70
  Q 483.42 170.65 488.77 172.80
  C 509.94 181.31 518.43 207.01 506.16 226.57
  Q 503.19 231.30 493.11 240.31
  Q 445.39 282.96 397.81 325.31
  A 1.90 1.89 64.9 0 0 397.20 327.00
  Q 407.17 394.68 416.92 461.55
  Q 418.80 474.43 418.07 480.01
  C 414.52 507.12 383.00 520.67 360.42 505.33
  Q 308.40 469.99 256.55 434.64
  A 1.01 0.99 -44.6 0 0 255.44 434.64
  Q 203.28 470.16 151.07 505.58
  Q 142.72 511.25 131.93 512.00
  L 129.69 512.00
  C 111.65 511.06 96.22 498.01 93.90 480.15
  Q 93.17 474.53 95.09 461.43
  Q 104.80 395.19 114.83 326.98
  A 1.85 1.85 0.0 0 0 114.23 325.34
  Q 63.90 280.47 13.14 235.11
  C -7.14 216.99 -2.93 183.69 22.42 172.99
  Q 27.56 170.83 41.90 168.84
  Q 104.68 160.13 167.28 151.53
  A 1.37 1.37 0.0 0 0 168.35 150.70
  Q 194.79 87.51 221.35 24.08
  Q 230.62 1.94 255.31 0.00
  Z
  M 365.31 305.31
  Q 420.06 256.56 474.62 207.80
  A 0.37 0.37 0.0 0 0 474.43 207.15
  Q 404.21 197.09 333.87 186.92
  C 324.40 185.55 317.76 183.47 314.14 174.83
  Q 288.42 113.45 262.74 52.04
  Q 261.97 50.20 261.95 49.13
  Q 261.95 49.00 261.84 48.94
  L 261.50 48.73
  Q 261.00 48.44 261.00 49.01
  L 261.00 394.00
  A 0.87 0.86 -76.5 0 0 261.47 394.77
  C 263.65 395.93 266.03 396.85 267.87 398.10
  Q 324.23 436.36 380.63 474.75
  A 0.40 0.40 0.0 0 0 381.25 474.36
  Q 370.77 401.16 360.33 327.83
  C 359.04 318.70 358.73 311.18 365.31 305.31
  Z"
/>
</svg>
