<?xml version="1.0" encoding="utf-8"?>
<!-- Generator: Adobe Illustrator 26.0.0, SVG Export Plug-In . SVG Version: 6.00 Build 0)  -->
<svg version="1.1" id="Capa_1" xmlns="http://www.w3.org/2000/svg" xmlns:xlink="http://www.w3.org/1999/xlink" x="0px" y="0px"
	 viewBox="0 0 512 512" style="enable-background:new 0 0 512 512;" xml:space="preserve">
<style type="text/css">
	.st0{fill:#FFFFFF;}
</style>
<path class="st0" d="M303.9,256.4L43.9,511.5c-0.3,0.3-0.6,0.3-1,0.1c-10.6-5.7-17.3-13.9-20.1-24.6c-1-3.8-1.5-10.4-1.5-19.9
	c0-143.5,0-287,0-430.4c0-16.6,7.3-28.7,21.8-36.4c0.3-0.2,0.6-0.1,0.9,0.1l260,255C304.2,255.8,304.2,256.1,303.9,256.4z"/>
<path class="st0" d="M325.9,233.8L103.6,14.6c-1.1-1.1-1-1.2,0.4-0.5l283.1,159.8c0.4,0.2,0.4,0.5,0.1,0.8L327,233.8
	C326.7,234.1,326.2,234.1,325.9,233.8z"/>
<path class="st0" d="M415.4,320l-65.9-63.5c-0.3-0.3-0.2-0.6,0.1-0.9l65.7-63.4c0.4-0.4,0.8-0.4,1.3-0.2
	c18.3,10.3,36.6,20.8,55,31.3c3.9,2.2,6.8,4.4,8.7,6.5c15.8,17,13.2,47.6-7.7,59.2c-18.7,10.4-37.4,20.8-56,31.2
	C416.3,320.5,415.8,320.4,415.4,320z"/>
<path class="st0" d="M326.9,278.1l60.2,59.2c0.2,0.2,0.2,0.5,0,0.8c0,0-0.1,0.1-0.1,0.1L103,498.5c-0.1,0.1-0.2,0-0.2,0
	c-0.1-0.1,0-0.2,0-0.2L326,278.2C326.3,277.9,326.6,277.9,326.9,278.1z"/>
</svg>
