<?xml version="1.0" encoding="utf-8"?>
<!-- Generator: Adobe Illustrator 26.0.0, SVG Export Plug-In . SVG Version: 6.00 Build 0)  -->
<svg version="1.1" id="Capa_1" xmlns="http://www.w3.org/2000/svg" xmlns:xlink="http://www.w3.org/1999/xlink" x="0px" y="0px"
	 viewBox="0 0 512 512" style="enable-background:new 0 0 512 512;" xml:space="preserve">
<style type="text/css">
	.st0{fill:#FFFFFF;}
</style>
<path class="st0" d="M354.1,0h4c2.1,27.1-4.9,51.7-20.8,73.8c-19.8,27.5-45.8,46.7-81.4,44c-0.3,0-0.5-0.2-0.5-0.5
	C250.9,57.5,297.4,9.7,354.1,0z"/>
<path class="st0" d="M185.7,512H175c-20.6-4-36.1-17.1-49.4-32.5c-46-53.5-73.4-119.6-78.1-190.2c-4.5-67.9,27.3-141.6,98.1-160.7
	c20.2-5.5,40.5-4.8,61,2c12.7,4.2,23,8,31,11.4c11,4.7,22,6.9,33.6,2.5c30.3-11.5,59.6-23.6,91.8-20.2c35.2,3.7,68,19.7,87.8,50
	c0.2,0.3,0.1,0.5-0.1,0.8c-4.4,3.2-9.6,6.6-13.3,9.6c-24.7,19.9-39.3,45.6-40.9,77.8c-2.5,51.1,20.9,91,67.3,112.7
	c0.7,0.3,1.1,1.2,0.8,2c-11.1,32.5-27.5,61.3-47.8,89c-17.5,23.9-37.1,46.9-69.5,45.2c-17-0.9-32.7-7.7-48.4-13.7
	c-17.8-6.8-36.1-8-54.7-3.7c-7.8,1.8-15.9,4.8-25.7,8.6C207.8,506.7,196.9,509.9,185.7,512z"/>
</svg>
