<?xml version="1.0" encoding="utf-8"?>
<!-- Generator: Adobe Illustrator 26.0.0, SVG Export Plug-In . SVG Version: 6.00 Build 0)  -->
<svg version="1.1" id="Capa_1" xmlns="http://www.w3.org/2000/svg" xmlns:xlink="http://www.w3.org/1999/xlink" x="0px" y="0px"
	 viewBox="0 0 512 512" style="enable-background:new 0 0 512 512;" xml:space="preserve">
<style type="text/css">
	.st0{fill:#FFFFFF;}
</style>
<path class="st0" d="M249,0h13.8C399.6,4.8,507.2,112.1,512,249.1v13.4C507.6,399.9,398.9,507.8,261.9,512h-12.2
	C112.9,507.8,4.9,399.9,0,263.4v-14.3c2.8-66.9,26.9-124,72.4-171.4C119,29.3,181.6,2.7,249,0z M318.2,169.4
	c0-34.4-27.9-62.2-62.2-62.2c-34.4,0-62.2,27.9-62.2,62.2s27.9,62.2,62.2,62.2l0,0C290.4,231.6,318.2,203.7,318.2,169.4z
	 M186.3,320.3c34.2-34,89.9-38.4,128.6-9.2c25.9,19.6,39.3,46.2,40.2,80c0.5,18.6,28.4,18.6,28.6-1.6c0.2-25.3-6.2-48.5-19.2-69.4
	c-45.6-73.7-151.4-81.2-206.8-14.4c-18.7,22.6-28.6,49-29.7,79.4c-0.2,4.3-0.1,7,0.1,8.2c1.7,8.6,9.9,13.6,18.3,11.5
	c7.9-2.1,10.8-8.9,10.8-16.8C157.5,362.7,168.9,337.7,186.3,320.3z"/>
</svg>
