<?xml version="1.0" encoding="utf-8"?>
<!-- Generator: Adobe Illustrator 26.0.0, SVG Export Plug-In . SVG Version: 6.00 Build 0)  -->
<svg version="1.1" id="Capa_1" xmlns="http://www.w3.org/2000/svg" xmlns:xlink="http://www.w3.org/1999/xlink" x="0px" y="0px"
	 viewBox="0 0 512 512" style="enable-background:new 0 0 512 512;" xml:space="preserve">
<style type="text/css">
	.st0{fill:#FFFFFF;}
</style>
<path class="st0" d="M250.8,0h12C399.5,4.4,507.4,112.5,512,249.1v11.5c-2.2,67.8-28.5,131.5-77.1,178.4
	c-47.6,46-105.3,70.3-172.9,73h-11.5C113.6,507.9,4.5,400.5,0,262.4v-13.2C4.8,111.7,113.3,3.8,250.8,0z M227.3,205.3
	c11.4,10.9,22.6,22.1,34,32.9c5,4.8,11.9,6.2,17.1,1.1c10.9-10.7,21.7-21.4,32.5-32.2c4.2-4.2,6.4-6.4,6.7-6.8
	c8.5-11.9-7.3-25.8-18.6-14.8c-5.5,5.4-11,10.8-16.5,16.2c-0.1,0.1-0.3,0.1-0.4,0c0-0.1-0.1-0.1-0.1-0.2c0.1-17.1,0.1-34.1,0-51.2
	c0-3.1-0.3-5.3-0.9-6.8c-3.6-9.6-17.3-10.2-21.5-0.9c-0.9,1.9-1.3,5-1.3,9.2c0,16.8,0,33.7,0,50.5c0,0.1-0.1,0.2-0.2,0.2
	c-0.1,0-0.1,0-0.2-0.1c-5.6-5.6-11.3-11.1-17.1-16.7c-3.3-3.1-6.2-4.7-10.5-4.3c-7.9,0.7-12.8,9.2-9.4,16.4
	C222.1,199.8,224.1,202.3,227.3,205.3z M161.2,191.8c0.4,0.7,0.7,1.6,1,2.8c9.1,33.9,18.4,67.7,27.8,101.5
	c3.3,11.7,4.8,18.3,18.9,18.4c40.7,0.2,81.5,0.1,122.2-0.3c9.7-0.1,12.8-6.2,15.2-14.4c6-20.1,12.1-40.2,18.1-60.2
	c1.6-5.3,2.4-9,2.4-11.1c-0.1-12.2-15.3-18.2-23.7-9.3c-1.4,1.4-2.5,3.7-3.5,6.8c-6.2,19.9-12.3,39.9-18.4,59.9
	c-0.1,0.4-0.4,0.6-0.9,0.6l-103.8,0c-0.2,0-0.4-0.2-0.5-0.4c-10.2-36.9-20.3-73.8-30.3-110.6c-2-7.3-8.4-10.2-15.9-11.5
	c-12.7-2.2-25.4-4.3-38.2-6.3c-4.6-0.7-7.8-1-9.7-0.6c-14.4,2.5-14.2,24.7-0.6,27.3c12.4,2.4,25.2,4.5,38.2,6.4
	C160.4,190.9,160.9,191.3,161.2,191.8z M247,350.5c0-14.1-11.4-25.5-25.5-25.5h0c-14.1,0-25.5,11.4-25.5,25.5l0,0
	c0,14.1,11.4,25.5,25.5,25.5S247,364.6,247,350.5z M337.4,350.5c0-14.1-11.4-25.5-25.5-25.5l0,0c-14.1,0-25.5,11.4-25.5,25.5
	s11.4,25.5,25.5,25.5S337.4,364.6,337.4,350.5L337.4,350.5z"/>
</svg>
