<?xml version="1.0" encoding="utf-8"?>
<!-- Generator: Adobe Illustrator 26.0.0, SVG Export Plug-In . SVG Version: 6.00 Build 0)  -->
<svg version="1.1" id="Capa_1" xmlns="http://www.w3.org/2000/svg" xmlns:xlink="http://www.w3.org/1999/xlink" x="0px" y="0px"
	 viewBox="0 0 512 512" style="enable-background:new 0 0 512 512;" xml:space="preserve">
<style type="text/css">
	.st0{fill:#E51E25;}
</style>
<path class="st0" d="M255.3,0h1.7c14.5,1.1,25.1,8,31.8,20.6c1.4,2.7,2.8,5.5,3.9,8.4c17,40.7,34.1,81.4,51.1,122.1
	c0.1,0.2,0.2,0.3,0.4,0.3c41.8,5.8,83.5,11.5,125,17.2c9.4,1.3,15.9,2.7,19.5,4.1c21.2,8.5,29.7,34.2,17.4,53.8
	c-2,3.2-6.3,7.7-13.1,13.7c-31.8,28.4-63.6,56.8-95.3,85c-0.5,0.4-0.7,1.1-0.6,1.7c6.6,45.1,13.2,90,19.7,134.5
	c1.3,8.6,1.6,14.7,1.1,18.5c-3.6,27.1-35.1,40.7-57.6,25.3c-34.7-23.6-69.3-47.1-103.9-70.7c-0.3-0.2-0.8-0.2-1.1,0
	c-34.8,23.7-69.6,47.3-104.4,70.9c-5.6,3.8-12,5.9-19.1,6.4h-2.2c-18.1-0.9-33.5-14-35.8-31.9c-0.5-3.7-0.1-10,1.2-18.6
	c6.4-43.9,12.9-87.9,19.3-131.8c0.3-2.3,1-3.3-1-5.1C80,294.8,46.6,265.1,13.2,235.2c-20.3-18.1-16.3-51.5,9.2-62.3
	c3.4-1.4,9.9-2.8,19.5-4.2c41.9-5.8,83.6-11.6,125.4-17.3c0.5-0.1,0.9-0.4,1.1-0.8c17.6-42.1,35.3-84.3,53-126.6
	C227.5,9.3,238.8,1.3,255.3,0z M365.3,305.3c36.5-32.5,72.9-65,109.3-97.5c0.2-0.1,0.2-0.4,0-0.5c-0.1-0.1-0.1-0.1-0.2-0.1
	c-46.8-6.7-93.7-13.4-140.6-20.2c-9.5-1.4-16.1-3.4-19.7-12.1c-19.2-45.8-38.4-91.6-57.5-137.4c-0.1-0.2-0.4-0.3-0.6-0.2
	c-0.1,0-0.2,0.1-0.2,0.2c-18.8,44.6-37.6,89.1-56.4,133.6c-3.4,8-7.4,14-15.8,15.1c-48.7,6.8-97.4,13.5-146,20.2
	c-0.2,0-0.3,0.2-0.3,0.4c0,0.1,0.1,0.2,0.1,0.2c34.3,30.9,68.6,61.8,102.9,92.8c8.4,7.5,13.6,12.1,12,22.9
	c-7.4,50.3-14.8,100.6-22.2,151c-0.1,0.7,0.1,0.9,0.8,0.5c38.1-25.6,76.3-51.3,114.7-77.1c9.4-6.3,17.1-2.5,26.2,3.7
	c36.2,24.6,72.5,49.2,108.7,73.9c0.2,0.1,0.4,0.1,0.6-0.1c0.1-0.1,0.1-0.2,0.1-0.3c-7-48.8-14-97.6-20.9-146.5
	C359,318.7,358.7,311.2,365.3,305.3z"/>
</svg>
