<?xml version="1.0" encoding="utf-8"?>
<!-- Generator: Adobe Illustrator 26.0.0, SVG Export Plug-In . SVG Version: 6.00 Build 0)  -->
<svg version="1.1" id="Capa_1" xmlns="http://www.w3.org/2000/svg" xmlns:xlink="http://www.w3.org/1999/xlink" x="0px" y="0px"
	 viewBox="0 0 1448 1448" style="enable-background:new 0 0 1448 1448;" xml:space="preserve">
<style type="text/css">
	.st0{fill:#FBE4EE;}
	.st1{fill:#F1AFC2;}
</style>
<g>
	<path d="M805.8,620.1c-0.4,0-0.8,0-1.3,0.1c-0.3,0.1-0.7,0.1-1.1,0.1l-93.4-2.7l7.8-16.1c0.1-0.4,0.3-0.8,0.1-1.3
		c-0.7-2.8-1.6-7.2-2.4-13c-6.8-44.3-13-88.7-20.2-132.8c-1.8-11.7-3.5-23.5-5.1-35.2c-0.4-3.3-0.1-5.7,0.7-7.5
		c36.4-74,72.8-148,109.2-221.9c26.5-53.6,45.5-91.9,57.6-115c3.5-6.9,16.4-7.1,23.5-6.6c1.1,0,2,0.8,2,2c0,0.1,0,0.4-0.1,0.6
		L769.9,365.7c-0.3,0.7,0.1,1.4,0.7,1.7l0,0l17.7,6.9c1.6,0.6,2.7,0.1,3.4-1.4c5-11.9,9.9-23.3,14.9-34.4
		c35.6-80.3,70.4-161,106.2-241.3c1.7-3.7,3.5-8.6,7.4-10.6c4.2-2.4,15.4-1.6,18.8,2c0.3,0.3,0.4,0.7,0.3,1.3
		c-0.4,2.1-1.3,4.7-2.3,7.5c-10.6,28.7-19.1,51.5-25.7,68.2c-10.2,25.7-18.8,52.3-29.7,77.7c-2.7,6.1-5.1,13.6-7.1,18.8
		c-16.3,41.3-32.4,82.9-48.4,124.6c-0.7,1.8-0.1,3,1.7,3.7l28.1,10.6c0.6,0.1,0.8,0,1.1-0.4c1.7-3.7,2.7-6.2,3.1-7.5
		c8.9-24.8,19-49.6,28.1-73.6c27.4-71.9,54.7-144.1,84.2-215.1c0.8-2.1,2.4-2.8,4.4-1.8c7.1,3.3,14.4,9.2,12.7,18
		c-0.8,4.2-3.4,12.6-7.8,25.2c-1.4,4.1-4.1,14.4-6.9,21.4c-1.6,3.7-2.5,6.5-3.3,8.3c-10.9,33.1-22.1,66.2-33.4,99.2
		c-14.4,41.7-27.9,83.7-42,125.5c-1.6,4.4-2.8,8.6-4,12.9c-0.3,1.1,0.3,2.3,1.3,2.7l17.5,7.1c0.7,0.3,1.4,0,1.7-0.7l0,0l114.9-294.4
		c0.6-1.3,2-2,3.3-1.4c0.3,0.1,0.6,0.3,0.8,0.6c4,3.8,7.5,7.9,10.9,12c3.8,4.7-1.3,19-3.7,26.5c-0.6,1.7-2.4,4.8-2.7,7.8
		c-0.1,1.7-0.4,3-0.6,3.7c-26.9,95.3-58.8,205.8-95.8,331.7c-0.7,2.5-0.8,3.5-3,5.2C893.3,548.9,849.6,584.6,805.8,620.1z"/>
	<path class="st0" d="M473.9,318.5c-1.3,0.4-2.1,0.7-2.5,1c-87.1,68.2-143.4,165.1-143.9,277.7c-0.1,50.1,25.7,105.5,68.5,133.1
		c38.8,25,82.6,39.3,128.4,45c45,5.5,91.4,6.1,137.1,7.8c62,2.3,124.3,8.6,184.5,24.3c33.2,8.8,64.6,27.9,90.4,50.2
		c27,23.5,45.8,54.6,55.7,89c6.9,24.2,11.9,50.9,10.2,75.7c-5.8,83.7-56.4,170.5-122.1,222.1c-19,14.9-39.6,25.6-62,32.3
		c-0.8-1.6-0.8-2.5,0.1-3.3c22.1-14.7,42.2-33.7,54.2-57.3c19.7-38.1,21.8-77,10.3-118c-8.1-29-25.9-55.4-50.8-72.6
		c-18.4-12.7-38.9-28.1-59.6-36.8c-14-5.9-27.9-13.4-41.6-18.4c-8.3-3-16.7-5.9-25.2-8.9c-6.5-2.3-13.2-3.7-20.1-5.7
		c-37.3-10.2-75.4-19.4-113.9-27.6c-31.3-7.8-62-16-92.4-26.2c-64.8-21.6-128.7-58.3-171-113.3c-43.3-56.3-58.1-125.3-46.5-194.9
		c0.8-4.7,2.4-13.3,4.7-25.9c10.5-56.4,37.2-108.5,71.7-153.6c2.1-2.8,10.9-12.6,15.7-16.5c12.7-11.6,17-17.3,27.2-24.2
		c8.2-6.2,14.9-10.3,20.2-14.6c19.7-15.6,39.3-28.7,60.7-41c3.4-2,6.9-3.1,10.6-4.5c2.7-1,3.8-0.1,3,2.7
		C475.6,316.2,474.9,317.1,473.9,318.5z"/>
	<path class="st1" d="M473.9,318.5l-0.7,1.4c-0.3,0.4-0.4,0.8-0.7,1.1c-11.2,12.7-20.7,26.7-28.3,41.7
		c-19.9,38.9-23.2,86.1-12.9,128.3c12.4,50.8,58,91.2,105.8,107.5c29.6,10,61.2,13.6,93.4,16c26.7,2,53.2,3,79.6,3.3l93.4,2.7
		c0.4,0,0.7,0,1.1-0.1c0.4-0.1,0.8-0.1,1.3-0.1c62.7,5.5,122.5,8.1,183.2,22.5c46.1,10.9,88.8,31.8,126,61.1
		c74.7,58.8,93.4,157.7,73.8,246.8c-14.9,67.5-48.2,135.5-100.6,182.2c-8.5,7.6-18.4,17.1-28.3,24.9c-11.9,9.2-26,20.8-38.9,30.3
		c-31.8,23.5-69.5,45.7-107.1,61.8c-15.6,6.6-26.3,10.9-42.3,16.1c-7.8,2.7-22.5,6.4-31,8.6c-6.8,1.8-13.6,3.1-20.7,3.7
		c-1.6,0.1-2.3-0.4-2.3-1.6c22.3-6.6,43.1-17.4,62-32.3c65.6-51.6,116.3-138.3,122.1-222.1c1.7-24.8-3.3-51.5-10.2-75.7
		c-9.8-34.4-28.7-65.4-55.7-89c-25.7-22.5-57.1-41.6-90.4-50.2c-60.1-15.8-122.5-22.2-184.5-24.3c-45.7-1.6-92.1-2.3-137.1-7.8
		c-45.8-5.7-89.7-20.1-128.4-45c-42.7-27.6-68.6-83-68.5-133.1c0.4-112.6,56.7-209.5,143.9-277.7
		C471.7,319.2,472.6,318.9,473.9,318.5z"/>
	<path d="M571.9,928c38.6,8.2,76.5,17.4,113.9,27.6l-139,421.8c-0.4,1.1-1.4,2-2.7,1.8c-3,0-6.1,0.3-9.2-0.4
		c-69.2-15.1-115.8-25.5-139.9-31c-7.4-1.7-7.1-7.6-4.5-13.4C450.9,1199,511.3,1063.7,571.9,928z"/>
</g>
</svg>
