<?xml version="1.0" encoding="utf-8"?>
<!-- Generator: Adobe Illustrator 26.0.0, SVG Export Plug-In . SVG Version: 6.00 Build 0)  -->
<svg version="1.1" id="Capa_1" xmlns="http://www.w3.org/2000/svg" xmlns:xlink="http://www.w3.org/1999/xlink" x="0px" y="0px"
	 viewBox="0 0 512 512" style="enable-background:new 0 0 512 512;" xml:space="preserve">
<style type="text/css">
	.st0{fill:#E51E25;}
</style>
<path class="st0" d="M266,6.8C355.8,29,420.3,109,426.1,201.1c2.9,45.5-9.5,90.4-34.3,128.6c-0.4,0.7-0.3,1.6,0.2,2.1
	c34.2,34.3,68.6,68.6,103.1,103.1c5.8,5.8,9.7,10.5,11.8,14.3c19.7,36.2-20.4,77.3-57.3,57.7c-3.9-2.1-9-6.3-15.4-12.7
	c-34.2-34.2-68.3-68.3-102.3-102.2c-0.6-0.5-1.4-0.6-2.1-0.2C177.3,490.4-19.6,366.4,1.8,187.3C17.1,59.2,142.2-23.9,266,6.8z
	 M362.5,213.3c0-82.4-66.8-149.1-149.1-149.1C131,64.2,64.2,131,64.2,213.3l0,0c0,82.4,66.8,149.1,149.1,149.1l0,0
	C295.7,362.5,362.5,295.7,362.5,213.3z"/>
</svg>
