<?xml version="1.0" encoding="utf-8"?>
<!-- Generator: Adobe Illustrator 26.0.0, SVG Export Plug-In . SVG Version: 6.00 Build 0)  -->
<svg version="1.1" id="Capa_1" xmlns="http://www.w3.org/2000/svg" xmlns:xlink="http://www.w3.org/1999/xlink" x="0px" y="0px"
	 viewBox="0 0 512 309.7" style="enable-background:new 0 0 512 309.7;" xml:space="preserve">
<style type="text/css">
	.st0{fill:#FFFFFF;}
</style>
<path class="st0" d="M204.1,5.5c123.1-22.7,248.4,37.4,306.8,148.8c0.2,0.4,0.2,0.8,0,1.1c-43.4,81.7-124.3,139.1-216.9,151
	C173.2,321.9,59.2,262.2,1.5,155.7c-0.3-0.5-0.3-1.1,0-1.6C43,76.2,117.3,21.5,204.1,5.5z M353.9,154.9c0-54-43.7-97.7-97.7-97.7
	c-54,0-97.7,43.7-97.7,97.7l0,0c0,54,43.7,97.7,97.7,97.7S353.9,208.8,353.9,154.9z"/>
</svg>
